<?xml version="1.0" encoding="UTF-8" standalone="no"?>
<svg
   xmlns:dc="http://purl.org/dc/elements/1.1/"
   xmlns:cc="http://creativecommons.org/ns#"
   xmlns:rdf="http://www.w3.org/1999/02/22-rdf-syntax-ns#"
   xmlns:svg="http://www.w3.org/2000/svg"
   xmlns="http://www.w3.org/2000/svg"
   xmlns:sodipodi="http://sodipodi.sourceforge.net/DTD/sodipodi-0.dtd"
   xmlns:inkscape="http://www.inkscape.org/namespaces/inkscape"
   width="16.02"
   height="16.02"
   fill="currentColor"
   class="bi bi-emoji-smile-upside-down"
   viewBox="0 0 16.02 16.02"
   version="1.1"
   id="svg1434"
   sodipodi:docname="emoji-smile-upside-down.svg"
   inkscape:export-filename="C:\Users\BAMBUUS CHONK\Desktop\favicon.png"
   inkscape:export-xdpi="192"
   inkscape:export-ydpi="192"
   inkscape:version="1.0.2 (e86c870, 2021-01-15)">
  <metadata
     id="metadata1440">
    <rdf:RDF>
      <cc:Work
         rdf:about="">
        <dc:format>image/svg+xml</dc:format>
        <dc:type
           rdf:resource="http://purl.org/dc/dcmitype/StillImage" />
        <dc:title></dc:title>
      </cc:Work>
    </rdf:RDF>
  </metadata>
  <defs
     id="defs1438" />
  <sodipodi:namedview
     pagecolor="#ffffff"
     bordercolor="#666666"
     borderopacity="1"
     objecttolerance="10"
     gridtolerance="10"
     guidetolerance="10"
     inkscape:pageopacity="0"
     inkscape:pageshadow="2"
     inkscape:window-width="1920"
     inkscape:window-height="1147"
     id="namedview1436"
     showgrid="false"
     inkscape:zoom="45.254834"
     inkscape:cx="6.4979594"
     inkscape:cy="7.9690714"
     inkscape:window-x="-8"
     inkscape:window-y="-8"
     inkscape:window-maximized="1"
     inkscape:current-layer="svg1434" />
  <path
     d="m 8.0099139,1.0084585 a 7.0000002,7.0000002 0 1 0 0,13.9999995 7.0000002,7.0000002 0 0 0 0,-13.9999995 z m 0,-0.99999997 a 8.0000002,8.0000002 0 1 1 0,15.99999947 8.0000002,8.0000002 0 0 1 0,-15.99999947 z"
     id="path1430" />
  <path
     d="m 4.2949139,6.4414586 a 0.5,0.5 0 0 0 0.683,-0.183 3.498,3.498 0 0 1 3.032,-1.75 c 1.295,0 2.4260001,0.703 3.0320001,1.75 a 0.5,0.5 0 0 0 0.866,-0.5 4.498,4.498 0 0 0 -3.8980001,-2.25 4.5,4.5 0 0 0 -3.898,2.25 0.5,0.5 0 0 0 0.183,0.683 z m 2.715,3.0669998 c 0,-0.8279999 -0.448,-1.5 -1,-1.5 -0.5519999,0 -1,0.6720001 -1,1.5 0,0.8279996 0.4480001,1.4999996 1,1.4999996 0.552,0 1,-0.672 1,-1.4999996 z m 4.0000001,0 c 0,-0.8279999 -0.448,-1.5 -1,-1.5 -0.552,0 -1.0000001,0.6720001 -1.0000001,1.5 0,0.8279996 0.4480001,1.4999996 1.0000001,1.4999996 0.552,0 1,-0.672 1,-1.4999996 z"
     id="path1432" />
</svg>
